<svg xmlns="http://www.w3.org/2000/svg" xmlns:xlink="http://www.w3.org/1999/xlink" version="1.1" x="0px" y="0px" viewBox="0 0 100 125" enable-background="new 0 0 100 100" xml:space="preserve"><g display="none"><rect x="32.5" y="47.5" display="inline" width="5" height="5"/><rect x="37.5" y="52.5" display="inline" width="5" height="5"/><rect x="37.5" y="47.5" display="inline" width="5" height="5"/><rect x="57.5" y="47.5" display="inline" width="5" height="5"/><rect x="57.5" y="52.5" display="inline" width="5" height="5"/><rect x="62.5" y="47.5" display="inline" width="5" height="5"/><rect x="62.5" y="72.5" display="inline" width="5" height="5"/><rect x="57.5" y="72.5" display="inline" width="5" height="5"/><rect x="52.5" y="72.5" display="inline" width="5" height="5"/><rect x="47.5" y="72.5" display="inline" width="5" height="5"/><rect x="42.5" y="72.5" display="inline" width="5" height="5"/><rect x="37.5" y="72.5" display="inline" width="5" height="5"/><rect x="32.5" y="77.5" display="inline" width="5" height="5"/><rect x="20" y="35" display="inline" width="50" height="5"/><rect x="32.5" y="25" display="inline" width="5" height="10"/><rect x="65" y="25" display="inline" width="5" height="10"/><rect x="37.5" y="20" display="inline" width="27.5" height="5"/></g><g><path d="M50,4.891c-24.793,0-44.963,20.17-44.963,44.963S25.207,94.816,50,94.816s44.963-20.17,44.963-44.963   S74.793,4.891,50,4.891z M46.774,68.203c0,3.711-3.102,6.73-6.914,6.73h-2.306c-3.812,0-6.913-3.02-6.913-6.73v-37.49   c0-3.711,3.102-6.73,6.913-6.73h2.306c3.813,0,6.914,3.02,6.914,6.73V68.203z M67.25,68.203c0,3.711-3.102,6.73-6.914,6.73H58.03   c-3.812,0-6.913-3.02-6.913-6.73v-37.49c0-3.711,3.102-6.73,6.913-6.73h2.306c3.813,0,6.914,3.02,6.914,6.73V68.203z"/></g><text x="0" y="115" fill="#000000" font-size="5px" font-weight="bold" font-family="'Helvetica Neue', Helvetica, Arial-Unicode, Arial, Sans-serif">Created by Universal Icons</text><text x="0" y="120" fill="#000000" font-size="5px" font-weight="bold" font-family="'Helvetica Neue', Helvetica, Arial-Unicode, Arial, Sans-serif">from the Noun Project</text></svg>