<svg xmlns="http://www.w3.org/2000/svg" xmlns:xlink="http://www.w3.org/1999/xlink" version="1.1" x="0px" y="0px" viewBox="0 0 100 125" enable-background="new 0 0 100 100" xml:space="preserve"><g display="none"><rect x="50" y="5" display="inline" width="2.5" height="30"/><rect x="27.5" y="20" display="inline" width="5" height="2.5"/><rect x="30" y="22.5" display="inline" width="5" height="2.5"/><rect x="35" y="25" display="inline" width="5" height="2.5"/><rect x="37.5" y="27.5" display="inline" width="5" height="2.5"/><rect x="42.5" y="30" display="inline" width="5" height="2.5"/><rect x="47.5" y="32.5" display="inline" width="2.5" height="2.5"/><rect x="47.5" y="5" display="inline" width="2.5" height="2.5"/><rect x="42.5" y="7.5" display="inline" width="5" height="2.5"/><rect x="27.5" y="17.5" display="inline" width="2.5" height="2.5"/><rect x="30" y="15" display="inline" width="5" height="2.5"/><rect x="35" y="12.5" display="inline" width="5" height="2.5"/><rect x="40" y="10" display="inline" width="2.5" height="2.5"/><rect x="52.5" y="10" display="inline" width="7.5" height="2.5"/><rect x="52.5" y="25" display="inline" width="7.5" height="2.5"/><rect x="60" y="10" display="inline" width="2.5" height="2.5"/><rect x="62.5" y="12.5" display="inline" width="7.5" height="2.5"/><rect x="70" y="15" display="inline" width="5" height="2.5"/><rect x="75" y="17.5" display="inline" width="2.5" height="2.5"/><rect x="77.5" y="20" display="inline" width="2.5" height="2.5"/><rect x="80" y="22.5" display="inline" width="2.5" height="2.5"/><rect x="82.5" y="25" display="inline" width="2.5" height="2.5"/><rect x="85" y="27.5" display="inline" width="2.5" height="2.5"/><rect x="87.5" y="30" display="inline" width="2.5" height="2.5"/><rect x="87.5" y="32.5" display="inline" width="2.5" height="2.5"/><rect x="90" y="35" display="inline" width="2.5" height="7.5"/><rect x="92.5" y="42.5" display="inline" width="2.5" height="12.5"/><rect x="60" y="27.5" display="inline" width="7.5" height="2.5"/><rect x="67.5" y="30" display="inline" width="2.5" height="2.5"/><rect x="70" y="32.5" display="inline" width="2.5" height="2.5"/><rect x="72.5" y="35" display="inline" width="2.5" height="2.5"/><rect x="75" y="37.5" display="inline" width="2.5" height="7.5"/><rect x="77.5" y="45" display="inline" width="2.5" height="10"/><rect x="75" y="55" display="inline" width="2.5" height="7.5"/><rect x="72.5" y="62.5" display="inline" width="2.5" height="5"/><rect x="70" y="67.5" display="inline" width="2.5" height="2.5"/><rect x="67.5" y="70" display="inline" width="2.5" height="2.5"/><rect x="65" y="72.5" display="inline" width="2.5" height="2.5"/><rect x="62.5" y="72.5" display="inline" width="2.5" height="2.5"/><rect x="55" y="75" display="inline" width="7.5" height="2.5"/><rect x="50" y="77.5" display="inline" width="5" height="2.5"/><rect x="45" y="75" display="inline" width="5" height="2.5"/><rect x="40" y="75" display="inline" width="5" height="2.5"/><rect x="37.5" y="72.5" display="inline" width="2.5" height="2.5"/><rect x="35" y="70" display="inline" width="2.5" height="2.5"/><rect x="32.5" y="67.5" display="inline" width="2.5" height="2.5"/><rect x="30" y="65" display="inline" width="2.5" height="2.5"/><rect x="27.5" y="60" display="inline" width="2.5" height="5"/><rect x="25" y="57.5" display="inline" width="2.5" height="2.5"/><rect x="25" y="50" display="inline" width="2.5" height="7.5"/><rect x="25" y="45" display="inline" width="2.5" height="5"/><rect x="27.5" y="40" display="inline" width="2.5" height="2.5"/><rect x="25" y="42.5" display="inline" width="2.5" height="2.5"/><rect x="25" y="37.5" display="inline" width="2.5" height="2.5"/><rect x="22.5" y="35" display="inline" width="2.5" height="2.5"/><rect x="20" y="35" display="inline" width="2.5" height="2.5"/><rect x="17.5" y="32.5" display="inline" width="2.5" height="2.5"/><rect x="15" y="32.5" display="inline" width="2.5" height="2.5"/><rect x="90" y="55" display="inline" width="2.5" height="10"/><rect x="87.5" y="65" display="inline" width="2.5" height="7.5"/><rect x="85" y="72.5" display="inline" width="2.5" height="2.5"/><rect x="82.5" y="75" display="inline" width="2.5" height="5"/><rect x="80" y="80" display="inline" width="2.5" height="2.5"/><rect x="77.5" y="82.5" display="inline" width="2.5" height="2.5"/><rect x="75" y="85" display="inline" width="2.5" height="2.5"/><rect x="70" y="87.5" display="inline" width="5" height="2.5"/><rect x="65" y="90" display="inline" width="5" height="2.5"/><rect x="57.5" y="90" display="inline" width="7.5" height="2.5"/><rect x="52.5" y="92.5" display="inline" width="5" height="2.5"/><rect x="50" y="92.5" display="inline" width="2.5" height="2.5"/><rect x="12.5" y="35" display="inline" width="2.5" height="2.5"/><rect x="12.5" y="37.5" display="inline" width="2.5" height="2.5"/><rect x="10" y="40" display="inline" width="2.5" height="20"/><rect x="12.5" y="60" display="inline" width="2.5" height="7.5"/><rect x="15" y="67.5" display="inline" width="2.5" height="5"/><rect x="17.5" y="72.5" display="inline" width="2.5" height="5"/><rect x="20" y="77.5" display="inline" width="2.5" height="2.5"/><rect x="22.5" y="80" display="inline" width="2.5" height="2.5"/><rect x="25" y="82.5" display="inline" width="2.5" height="2.5"/><rect x="27.5" y="85" display="inline" width="5" height="2.5"/><rect x="32.5" y="87.5" display="inline" width="5" height="2.5"/><rect x="37.5" y="90" display="inline" width="12.5" height="2.5"/></g><g><path d="M49.962,4.847C25.169,4.847,5,25.018,5,49.811c0,24.792,20.169,44.962,44.962,44.962c24.793,0,44.963-20.17,44.963-44.962   C94.926,25.018,74.756,4.847,49.962,4.847z M64.488,56.681L46.123,72.844c-1.649,1.452-3.28,2.188-4.845,2.188   c-2.26,0-4.899-1.727-4.899-6.593V30.611c0-4.866,2.639-6.593,4.899-6.593c1.565,0,3.196,0.736,4.845,2.188L64.488,42.37   c2.146,1.89,3.329,4.431,3.329,7.155S66.634,54.791,64.488,56.681z"/></g><text x="0" y="115" fill="#000000" font-size="5px" font-weight="bold" font-family="'Helvetica Neue', Helvetica, Arial-Unicode, Arial, Sans-serif">Created by Universal Icons</text><text x="0" y="120" fill="#000000" font-size="5px" font-weight="bold" font-family="'Helvetica Neue', Helvetica, Arial-Unicode, Arial, Sans-serif">from the Noun Project</text></svg>